# xmcd
#
# Track frame offsets:
#	150
#	16677
#	33095
#	53388
#	70968
#	93602
#	114885
#	127847
#	142236
#	162463
#	179929
#
# Disc length: 2596 seconds
#
# Revision: 1
# Processed by: cddbd v1.4PL0 Copyright (c) Steve Scherf et al.
# Submitted via: EasyCDDAExtractor 5.1.0
#
DISCID=900a220b
DTITLE=Luke Olson - Maybe Someday
DYEAR=1995
DGENRE=country
TTITLE0=Old Mexico
TTITLE1=Goodbye
TTITLE2=What A Fool I Am
TTITLE3=Runaway
TTITLE4=No One Is In Sight
TTITLE5=The Price You Pay
TTITLE6=Clary's Song
TTITLE7=A Way Of Life
TTITLE8=Playing In The Sun
TTITLE9=My Way Is The Highway
TTITLE10=See You Around
EXTD=
EXTT0=
EXTT1=
EXTT2=
EXTT3=
EXTT4=
EXTT5=
EXTT6=
EXTT7=
EXTT8=
EXTT9=
EXTT10=
PLAYORDER=
